<svg width="28" height="28" viewBox="0 0 28 28" fill="none" xmlns="http://www.w3.org/2000/svg">
<path d="M13.7046 17.5448C11.151 17.5448 9.07894 15.4658 9.07894 12.9122C9.07894 12.4796 9.42894 12.1352 9.85454 12.1352C10.2871 12.1352 10.6371 12.4796 10.6371 12.9122C10.6371 14.6076 12.0148 15.9852 13.7046 15.9852C15.4 15.9852 16.7845 14.6076 16.7845 12.9122C16.7845 12.4796 17.129 12.1352 17.5602 12.1352C17.9928 12.1352 18.3371 12.4796 18.3371 12.9122C18.3371 15.4658 16.2596 17.5448 13.7046 17.5448ZM10.6371 7.43264C10.6371 5.73724 12.0148 4.35403 13.7046 4.35403C15.4 4.35403 16.7845 5.73724 16.7845 7.43264V8.25863H10.6371V7.43264ZM23.2035 19.4852L22.6519 10.878C22.5595 9.40663 21.3345 8.25863 19.8631 8.25863H18.3371V7.43264C18.3371 4.87904 16.2596 2.80005 13.7046 2.80005C11.151 2.80005 9.07894 4.87904 9.07894 7.43264V8.25863H7.55295C6.08155 8.25863 4.85654 9.40663 4.76414 10.878L4.21115 19.4852C4.11315 21.0392 4.66475 22.575 5.72595 23.7076C6.79275 24.8402 8.29074 25.4899 9.84334 25.4899H17.5713C19.1239 25.4899 20.6233 24.8402 21.6845 23.7076C22.7499 22.575 23.3029 21.0392 23.2035 19.4852Z" fill="#F15A24"/>
</svg>
