<svg width="17" height="17" viewBox="0 0 17 17" fill="none" xmlns="http://www.w3.org/2000/svg">
<path d="M8.4668 16.9336C7.29915 16.9336 6.20345 16.7122 5.17969 16.2695C4.15592 15.8324 3.25667 15.2264 2.48193 14.4517C1.70719 13.6769 1.09847 12.7777 0.655762 11.7539C0.218587 10.7301 0 9.63444 0 8.4668C0 7.29915 0.218587 6.20345 0.655762 5.17969C1.09847 4.15592 1.70719 3.25667 2.48193 2.48193C3.25667 1.70166 4.15592 1.09294 5.17969 0.655762C6.20345 0.218587 7.29915 0 8.4668 0C9.63444 0 10.7301 0.218587 11.7539 0.655762C12.7777 1.09294 13.6769 1.70166 14.4517 2.48193C15.2264 3.25667 15.8324 4.15592 16.2695 5.17969C16.7122 6.20345 16.9336 7.29915 16.9336 8.4668C16.9336 9.63444 16.7122 10.7301 16.2695 11.7539C15.8324 12.7777 15.2264 13.6769 14.4517 14.4517C13.6769 15.2264 12.7777 15.8324 11.7539 16.2695C10.7301 16.7122 9.63444 16.9336 8.4668 16.9336ZM8.4668 15.5225C9.44076 15.5225 10.3538 15.3398 11.2061 14.9746C12.0583 14.6094 12.8081 14.103 13.4556 13.4556C14.103 12.8081 14.6094 12.0583 14.9746 11.2061C15.3398 10.3538 15.5225 9.44076 15.5225 8.4668C15.5225 7.49284 15.3398 6.57975 14.9746 5.72754C14.6094 4.86979 14.103 4.11995 13.4556 3.47803C12.8081 2.83057 12.0583 2.32422 11.2061 1.95898C10.3538 1.59375 9.44076 1.41113 8.4668 1.41113C7.49284 1.41113 6.57975 1.59375 5.72754 1.95898C4.87533 2.32422 4.12549 2.83057 3.47803 3.47803C2.83057 4.11995 2.32422 4.86979 1.95898 5.72754C1.59375 6.57975 1.41113 7.49284 1.41113 8.4668C1.41113 9.44076 1.59375 10.3538 1.95898 11.2061C2.32422 12.0583 2.83057 12.8081 3.47803 13.4556C4.12549 14.103 4.87533 14.6094 5.72754 14.9746C6.57975 15.3398 7.49284 15.5225 8.4668 15.5225ZM8.30078 10.1851C7.85807 10.1851 7.63672 9.96647 7.63672 9.5293C7.63672 9.5127 7.63672 9.49609 7.63672 9.47949C7.63672 9.45736 7.63672 9.43799 7.63672 9.42139C7.63672 9.01188 7.73356 8.68262 7.92725 8.43359C8.12646 8.18457 8.37549 7.95768 8.67432 7.75293C9.03955 7.49837 9.31071 7.28255 9.48779 7.10547C9.66488 6.92285 9.75342 6.69043 9.75342 6.4082C9.75342 6.09277 9.63997 5.83822 9.41309 5.64453C9.1862 5.44531 8.88184 5.3457 8.5 5.3457C8.31738 5.3457 8.14583 5.37614 7.98535 5.43701C7.8304 5.49788 7.68929 5.58643 7.56201 5.70264C7.43473 5.81331 7.32129 5.94889 7.22168 6.10938L7.07227 6.30859C7.00033 6.4082 6.91455 6.48844 6.81494 6.54932C6.72087 6.61019 6.60465 6.64062 6.46631 6.64062C6.32796 6.64062 6.19792 6.59359 6.07617 6.49951C5.95443 6.3999 5.89355 6.25602 5.89355 6.06787C5.89355 5.99593 5.89909 5.92676 5.91016 5.86035C5.92122 5.79395 5.93783 5.72754 5.95996 5.66113C6.07617 5.2793 6.3584 4.9445 6.80664 4.65674C7.26042 4.36344 7.84424 4.2168 8.55811 4.2168C9.02848 4.2168 9.46289 4.2998 9.86133 4.46582C10.2598 4.6263 10.5807 4.86426 10.8242 5.17969C11.0732 5.49512 11.1978 5.88249 11.1978 6.3418C11.1978 6.83984 11.0677 7.23275 10.8076 7.52051C10.5475 7.80827 10.2183 8.08496 9.81982 8.35059C9.52653 8.54427 9.31071 8.72689 9.17236 8.89844C9.03402 9.06445 8.96484 9.26367 8.96484 9.49609C8.96484 9.50716 8.96484 9.52376 8.96484 9.5459C8.96484 9.5625 8.96484 9.5791 8.96484 9.5957C8.96484 9.75618 8.90397 9.89453 8.78223 10.0107C8.66602 10.127 8.50553 10.1851 8.30078 10.1851ZM8.27588 12.6587C8.03792 12.6587 7.8304 12.5757 7.65332 12.4097C7.47624 12.2381 7.3877 12.0334 7.3877 11.7954C7.3877 11.5575 7.47347 11.3555 7.64502 11.1895C7.8221 11.0179 8.03239 10.9321 8.27588 10.9321C8.51937 10.9321 8.72965 11.0151 8.90674 11.1812C9.08382 11.3472 9.17236 11.5519 9.17236 11.7954C9.17236 12.0389 9.08382 12.2437 8.90674 12.4097C8.72965 12.5757 8.51937 12.6587 8.27588 12.6587Z" fill="black"/>
</svg>
