<svg width="28" height="28" viewBox="0 0 28 28" fill="none" xmlns="http://www.w3.org/2000/svg">
<path d="M22.4392 19.0582C22.4392 19.719 21.8695 20.3098 21.1695 20.3756L17.227 20.7592L19.1464 19.6812C20.0046 19.194 20.5352 18.27 20.5352 17.2648V7.81898L21.1695 7.75878C21.2143 7.75458 21.252 7.75455 21.2954 7.75455C21.9352 7.75455 22.4392 8.21937 22.4392 8.83117V19.0582ZM5.62803 20.3756C4.92803 20.3098 4.35963 19.719 4.35963 19.0582V8.83677C4.35963 8.21937 4.86224 7.75455 5.50764 7.75455C5.54544 7.75455 5.58883 7.75458 5.63923 7.75878L6.25664 7.81898V17.2648C6.25664 18.27 6.79284 19.194 7.65104 19.6812L9.56485 20.7592L5.62803 20.3756ZM7.81485 6.35455C7.81485 6.00875 8.08363 5.75816 8.37903 5.75816C8.46583 5.75816 8.55404 5.77916 8.64084 5.82396L12.6168 8.06537V20.65C12.6168 20.6653 12.628 20.6766 12.628 20.6934L8.41124 18.3246C8.04444 18.1174 7.81485 17.7072 7.81485 17.2648V6.35455ZM18.1566 5.82396C18.2448 5.77916 18.3317 5.75816 18.4185 5.75816C18.7139 5.75816 18.9826 6.00875 18.9826 6.35455V17.2648C18.9826 17.7072 18.753 18.1174 18.3806 18.3246L14.1639 20.6934C14.1695 20.6766 14.175 20.6653 14.175 20.65V8.06537L18.1566 5.82396ZM21.2954 6.19498C21.203 6.19498 21.1148 6.20057 21.0168 6.20617L20.5296 6.25518C20.475 5.11278 19.5567 4.19995 18.4185 4.19995C18.0643 4.19995 17.7086 4.29236 17.3964 4.46736L13.3994 6.71438L9.40104 4.46736C9.08884 4.29236 8.73463 4.19995 8.37903 4.19995C7.81483 4.19995 7.26885 4.43375 6.87405 4.83975C6.49745 5.21635 6.28883 5.71898 6.26783 6.25518L5.78624 6.21177C5.68824 6.20057 5.59444 6.19498 5.50764 6.19498C4.79644 6.19498 4.12864 6.45816 3.62604 6.92856C3.08984 7.42556 2.80005 8.10457 2.80005 8.83677V19.0582C2.80005 20.524 3.97605 21.7812 5.47965 21.9296L10.5056 22.4098C11.4632 22.5036 12.4362 22.547 13.3994 22.547C14.3612 22.547 15.3342 22.5036 16.2918 22.4098L21.3178 21.9296C22.8214 21.7812 23.9974 20.524 23.9974 19.0582V8.83117C23.9974 7.35417 22.8102 6.19498 21.2954 6.19498Z" fill="#3C3C43" fill-opacity="0.6"/>
</svg>
