<svg width="28" height="28" viewBox="0 0 28 28" fill="none" xmlns="http://www.w3.org/2000/svg">
<path d="M15.2485 12.6893C14.7405 12.6893 14.3274 12.2746 14.3274 11.7617C14.3274 10.3513 13.1768 9.20051 11.7603 9.20051C11.2539 9.20051 10.8392 8.78732 10.8392 8.27445C10.8392 7.76632 11.2539 7.35317 11.7603 7.35317C14.1976 7.35317 16.176 9.33186 16.176 11.7617C16.176 12.2746 15.7613 12.6893 15.2485 12.6893ZM23.1728 20.7956L17.7696 16.3491C20.0328 13.3874 19.8223 9.12133 17.1144 6.41291C14.1659 3.4623 9.3626 3.4623 6.41411 6.41291C4.98497 7.84073 4.2 9.73868 4.2 11.7617C4.2 13.7831 4.98497 15.6811 6.41411 17.1152C7.89073 18.5874 9.82635 19.3234 11.7667 19.3234C13.381 19.3234 15.0001 18.8042 16.3485 17.7721C17.6336 19.3361 20.7941 23.17 20.7941 23.17C22.4195 24.9999 24.9976 22.4212 23.1728 20.7956Z" fill="#F15A24"/>
</svg>
